<svg width="1920" height="1080" viewBox="0 0 1920 1080" xmlns="http://www.w3.org/2000/svg"><rect width="1920" height="1080" fill="#3d1053"/><path d="M1157,541C1159.8333333333333,560.4546869690827,1143.3026545996302,588.9097950621131,1126.1880299246773,609.6319991961561C1109.0734052497244,630.3542033301992,1085.4014612278947,650.5263552899276,1054.312251950283,665.3332248042582C1023.2230426726715,680.1400943185888,968.0076354085909,695.8292257639214,939.6527742590073,698.4732162821399C911.2979131094237,701.1172068003584,903.8762878491154,691.5660567062233,884.1830850527818,681.197167913569C864.4898822564483,670.8282791209148,817.3949340254583,654.9754022242295,821.4935574810058,636.2598835262145C825.5921809365534,617.5443648281995,897.8162664386483,601.6744423387049,908.7748257860673,568.9040557254793C919.7333851334862,536.1336691122538,878.7652554866959,466.7004425147978,887.2449135655193,439.63756384686127C895.7245716443426,412.5746851789247,935.8082178615466,402.4998532812108,959.6527742590072,406.5267837178601C983.4973306564677,410.5537141545094,1005.3897093393379,449.402964189457,1030.3122519502829,463.79914646675707C1055.2347945612278,478.1953287440571,1088.0734052497244,480.0370684594532,1109.1880299246773,492.9038773816604C1130.3026545996302,505.77068630386754,1154.1666666666667,521.5453130309173,1157,541C1159.8333333333333,560.4546869690827,1143.3026545996302,588.9097950621131,1126.1880299246773,609.6319991961561" fill="#df6688"/></svg>